<?xml version="1.0" encoding="UTF-8"?>
<!--Generator: Apple Native CoreSVG 175.5-->
<!DOCTYPE svg
PUBLIC "-//W3C//DTD SVG 1.1//EN"
       "http://www.w3.org/Graphics/SVG/1.1/DTD/svg11.dtd">
<svg version="1.1" xmlns="http://www.w3.org/2000/svg" xmlns:xlink="http://www.w3.org/1999/xlink" width="20.4416" height="20.8333">
 <g>
  <rect height="20.8333" opacity="0" width="20.4416" x="0" y="0"/>
  <path d="M6.59472 12.2802L11.6727 8.04157L5.49846 1.83701C4.38453 0.731877 3.11522 0.756398 2.01192 1.86241L0.842978 3.02864C-0.268487 4.1401-0.284835 5.40669 0.817578 6.50911ZM6.17152 8.77457L2.67137 5.28655C2.54709 5.16227 2.56133 4.96434 2.67137 4.84217C2.79837 4.72123 2.99964 4.73881 3.10634 4.84217L6.60983 8.34567C6.73139 8.46722 6.73077 8.65364 6.61256 8.77185C6.49435 8.8934 6.2958 8.89885 6.17152 8.77457ZM7.32017 7.63806L3.82607 4.12577C3.70786 4.00756 3.7018 3.82115 3.82607 3.69959C3.93822 3.58138 4.13404 3.57531 4.25832 3.69959L7.75848 7.19096C7.87669 7.30645 7.87669 7.49893 7.75241 7.63806C7.64905 7.74476 7.43838 7.75961 7.32017 7.63806ZM18.4678 20.5367L19.5206 19.4839C19.6822 19.3196 19.6606 19.1223 19.5194 18.8765L17.8087 16.026C17.6641 15.7768 17.4116 15.6107 17.1488 15.591L16.2117 15.5144L11.6611 10.9719L10.0116 12.7674L14.4895 17.2454L14.5716 18.1716C14.5885 18.425 14.7404 18.6808 15.0066 18.8302L17.861 20.5476C18.1056 20.6822 18.2974 20.7043 18.4678 20.5367ZM1.24675 19.7421C2.7161 21.1884 4.67677 21.2006 6.11976 19.7569C8.03155 17.8303 7.44295 15.8171 13.8551 9.48034L13.2321 8.84858C6.41006 15.7079 7.40024 17.0825 5.41672 19.0688C4.38664 20.0995 3.00289 20.111 1.93432 19.0572C0.871809 17.9799 0.889387 16.6022 1.90795 15.5721C3.90905 13.5825 5.28093 14.5788 12.1342 7.75671L11.5085 7.13374C5.17177 13.5459 3.15855 12.9573 1.23189 14.863C-0.217774 16.306-0.205645 18.2727 1.24675 19.7421ZM12.1749 8.80516C14.0977 10.7279 17.1885 10.7737 19.0716 8.89674C20.5801 7.38828 20.8634 5.03659 19.8192 3.13771L19.1437 3.82466C19.8439 5.32003 19.5814 7.08329 18.4198 8.25101C16.899 9.76906 14.4081 9.72327 12.8267 8.1567C11.2568 6.58408 11.2171 4.08104 12.7412 2.56633C13.9055 1.40468 15.6843 1.14224 17.1521 1.85117L17.839 1.16421C15.9523 0.123323 13.6066 0.400617 12.0954 1.91787C10.2184 3.79153 10.2582 6.87965 12.1749 8.80516ZM14.8571 4.93244L16.057 6.12907C16.6883 6.76039 17.4497 6.76434 18.0595 6.15122L19.9216 4.2831L19.3034 3.67103L17.5512 5.41118C17.2566 5.7057 16.9278 5.71238 16.6321 5.41935L15.5816 4.36282C15.2886 4.061 15.2677 3.72614 15.5595 3.43162L17.3239 1.67934L16.6903 1.0612L14.8376 2.91992C14.2063 3.54517 14.2103 4.3005 14.8571 4.93244ZM3.65355 18.4019C4.22668 18.4019 4.69162 17.9369 4.69162 17.3583C4.69162 16.7852 4.22668 16.3209 3.65355 16.3209C3.07496 16.3209 2.61064 16.7852 2.61064 17.3583C2.61064 17.9369 3.07496 18.4019 3.65355 18.4019Z" fill="#ffffff" fill-opacity="0.85"/>
 </g>
</svg>
