<?xml version="1.0" encoding="UTF-8"?>
<!--Generator: Apple Native CoreSVG 175.5-->
<!DOCTYPE svg
PUBLIC "-//W3C//DTD SVG 1.1//EN"
       "http://www.w3.org/Graphics/SVG/1.1/DTD/svg11.dtd">
<svg version="1.1" xmlns="http://www.w3.org/2000/svg" xmlns:xlink="http://www.w3.org/1999/xlink" width="31.875" height="31.8906">
 <g>
  <rect height="31.8906" opacity="0" width="31.875" x="0" y="0"/>
  <path d="M15.9375 31.8906C24.6562 31.8906 31.875 24.6719 31.875 15.9531C31.875 7.25 24.6406 0.015625 15.9219 0.015625C7.21875 0.015625 0 7.25 0 15.9531C0 24.6719 7.23438 31.8906 15.9375 31.8906Z" fill="#ffc726"/>
  <path d="M15.9375 22.3281C15.5781 22.3281 15.25 22.3281 14.9375 22.3125C14.7656 22.2969 14.6719 22.3438 14.5 22.4531C12.9062 23.4219 11.2969 24.0938 10.4062 24.0938C9.70312 24.0938 9.57812 23.5312 10.0312 23.0156C10.3594 22.6406 10.8281 22.1406 11.0938 21.6094C11.1875 21.4219 11.1875 21.2344 10.9844 21.1406C8.625 19.7656 7.03125 17.5781 7.03125 15.0625C7.03125 11.0312 10.9375 7.78125 15.9375 7.78125C20.9375 7.78125 24.8438 11.0312 24.8438 15.0625C24.8438 19.0781 20.9375 22.3281 15.9375 22.3281Z" fill="#000000" fill-opacity="0.85"/>
 </g>
</svg>
