<?xml version="1.0" encoding="UTF-8"?>
<!--Generator: Apple Native CoreSVG 175.5-->
<!DOCTYPE svg
PUBLIC "-//W3C//DTD SVG 1.1//EN"
       "http://www.w3.org/Graphics/SVG/1.1/DTD/svg11.dtd">
<svg version="1.1" xmlns="http://www.w3.org/2000/svg" xmlns:xlink="http://www.w3.org/1999/xlink" width="31.875" height="31.8906">
 <g>
  <rect height="31.8906" opacity="0" width="31.875" x="0" y="0"/>
  <path d="M15.9375 31.8906C24.6562 31.8906 31.875 24.6719 31.875 15.9531C31.875 7.25 24.6406 0.015625 15.9219 0.015625C7.21875 0.015625 0 7.25 0 15.9531C0 24.6719 7.23438 31.8906 15.9375 31.8906Z" fill="#ffc726"/>
  <path d="M8.57812 24.1406C7.92188 24.1406 7.625 23.7188 7.625 23.125C7.625 21.375 10.2812 16.7969 15.9375 16.7969C21.5938 16.7969 24.25 21.375 24.25 23.125C24.25 23.7188 23.9531 24.1406 23.2969 24.1406ZM15.9375 15.4688C13.6562 15.4531 11.7969 13.5312 11.7969 10.9375C11.7969 8.53125 13.6562 6.53125 15.9375 6.53125C18.2188 6.53125 20.0781 8.53125 20.0781 10.9375C20.0781 13.5312 18.2188 15.4844 15.9375 15.4688Z" fill="#000000" fill-opacity="0.85"/>
 </g>
</svg>
